<?xml version="1.0" encoding="UTF-8" standalone="no"?>
<!-- Generator: Adobe Illustrator 19.0.0, SVG Export Plug-In . SVG Version: 6.00 Build 0)  -->

<svg
        xmlns:dc="http://purl.org/dc/elements/1.1/"
        xmlns:cc="http://creativecommons.org/ns#"
        xmlns:rdf="http://www.w3.org/1999/02/22-rdf-syntax-ns#"
        xmlns:sodipodi="http://sodipodi.sourceforge.net/DTD/sodipodi-0.dtd"
        xmlns:inkscape="http://www.inkscape.org/namespaces/inkscape"
        xmlns="http://www.w3.org/2000/svg"
        version="1.1"
        id="Layer_1"
        x="0px"
        y="0px"
        viewBox="0 0 512 512"
        style="enable-background:new 0 0 512 512;"
        xml:space="preserve"
        sodipodi:docname="sun.svg"
        inkscape:version="0.92.3 (2405546, 2018-03-11)"><metadata
   id="metadata115"><rdf:RDF><cc:Work
       rdf:about=""><dc:format>image/svg+xml</dc:format><dc:type
        rdf:resource="http://purl.org/dc/dcmitype/StillImage"/></cc:Work></rdf:RDF></metadata>
    <defs
            id="defs113"/>
    <sodipodi:namedview
            pagecolor="#ffffff"
            bordercolor="#666666"
            borderopacity="1"
            objecttolerance="10"
            gridtolerance="10"
            guidetolerance="10"
            inkscape:pageopacity="0"
            inkscape:pageshadow="2"
            inkscape:window-width="1920"
            inkscape:window-height="1053"
            id="namedview111"
            showgrid="false"
            inkscape:zoom="0.4609375"
            inkscape:cx="256"
            inkscape:cy="256"
            inkscape:window-x="1920"
            inkscape:window-y="27"
            inkscape:window-maximized="1"
            inkscape:current-layer="Layer_1"/>
    <g
            id="g6"
            style="fill:#4eb1a0;fill-opacity:1">
	<g
            id="g4"
            style="fill:#4eb1a0;fill-opacity:1">
		<path
                d="M50.087,239.304H16.696C7.473,239.304,0,246.777,0,256s7.473,16.696,16.696,16.696h33.391    c9.223,0,16.696-7.473,16.696-16.696S59.31,239.304,50.087,239.304z"
                id="path2"
                style="fill:#4eb1a0;fill-opacity:1"/>
	</g>
</g>
    <g
            id="g12"
            style="fill:#4eb1a0;fill-opacity:1">
	<g
            id="g10"
            style="fill:#4eb1a0;fill-opacity:1">
		<path
                d="M495.304,239.304h-33.391c-9.223,0-16.696,7.473-16.696,16.696s7.473,16.696,16.696,16.696h33.391    c9.217,0,16.696-7.473,16.696-16.696S504.521,239.304,495.304,239.304z"
                id="path8"
                style="fill:#4eb1a0;fill-opacity:1"/>
	</g>
</g>
    <g
            id="g18"
            style="fill:#4eb1a0;fill-opacity:1">
	<g
            id="g16"
            style="fill:#4eb1a0;fill-opacity:1">
		<path
                d="M256,445.217c-9.223,0-16.696,7.473-16.696,16.696v33.391c0,9.223,7.473,16.696,16.696,16.696s16.696-7.473,16.696-16.696    v-33.391C272.696,452.69,265.223,445.217,256,445.217z"
                id="path14"
                style="fill:#4eb1a0;fill-opacity:1"/>
	</g>
</g>
    <g
            id="g24"
            style="fill:#4eb1a0;fill-opacity:1">
	<g
            id="g22"
            style="fill:#4eb1a0;fill-opacity:1">
		<path
                d="M256,0c-9.223,0-16.696,7.473-16.696,16.696v33.391c0,9.223,7.473,16.696,16.696,16.696s16.696-7.473,16.696-16.696    V16.696C272.696,7.473,265.223,0,256,0z"
                id="path20"
                style="fill:#4eb1a0;fill-opacity:1"/>
	</g>
</g>
    <g
            id="g30"
            style="fill:#4eb1a0;fill-opacity:1">
	<g
            id="g28"
            style="fill:#4eb1a0;fill-opacity:1">
		<path
                d="M390.108,454.898l-16.696-28.918c-4.604-7.978-14.793-10.729-22.804-6.108c-7.984,4.609-10.723,14.82-6.108,22.804    l16.696,28.918c4.622,8.011,14.83,10.721,22.804,6.108C391.984,473.092,394.723,462.881,390.108,454.898z"
                id="path26"
                style="fill:#4eb1a0;fill-opacity:1"/>
	</g>
</g>
    <g
            id="g36"
            style="fill:#4eb1a0;fill-opacity:1">
	<g
            id="g34"
            style="fill:#4eb1a0;fill-opacity:1">
		<path
                d="M167.5,69.326l-16.696-28.918C146.201,32.424,136.005,29.69,128,34.3c-7.984,4.609-10.723,14.82-6.108,22.804    l16.696,28.918c4.622,8.011,14.83,10.722,22.804,6.108C169.375,87.521,172.114,77.31,167.5,69.326z"
                id="path32"
                style="fill:#4eb1a0;fill-opacity:1"/>
	</g>
</g>
    <g
            id="g42"
            style="fill:#4eb1a0;fill-opacity:1">
	<g
            id="g40"
            style="fill:#4eb1a0;fill-opacity:1">
		<path
                d="M471.592,361.196L442.674,344.5c-7.984-4.615-18.196-1.875-22.804,6.108c-4.615,7.984-1.875,18.196,6.108,22.804    l28.918,16.696c7.984,4.619,18.19,1.878,22.804-6.108C482.315,376.016,479.576,365.804,471.592,361.196z"
                id="path38"
                style="fill:#4eb1a0;fill-opacity:1"/>
	</g>
</g>
    <g
            id="g48"
            style="fill:#4eb1a0;fill-opacity:1">
	<g
            id="g46"
            style="fill:#4eb1a0;fill-opacity:1">
		<path
                d="M86.022,138.587l-28.918-16.696c-7.989-4.615-18.19-1.864-22.804,6.108c-4.615,7.984-1.875,18.196,6.108,22.804    L69.326,167.5c7.984,4.619,18.192,1.878,22.804-6.108C96.745,153.407,94.005,143.195,86.022,138.587z"
                id="path44"
                style="fill:#4eb1a0;fill-opacity:1"/>
	</g>
</g>
    <g
            id="g54"
            style="fill:#4eb1a0;fill-opacity:1">
	<g
            id="g52"
            style="fill:#4eb1a0;fill-opacity:1">
		<path
                d="M477.7,128c-4.604-7.989-14.805-10.723-22.804-6.108l-28.918,16.696c-7.984,4.609-10.723,14.82-6.108,22.804    c4.622,8.011,14.83,10.722,22.804,6.108l28.918-16.696C479.576,146.195,482.315,135.984,477.7,128z"
                id="path50"
                style="fill:#4eb1a0;fill-opacity:1"/>
	</g>
</g>
    <g
            id="g60"
            style="fill:#4eb1a0;fill-opacity:1">
	<g
            id="g58"
            style="fill:#4eb1a0;fill-opacity:1">
		<path
                d="M92.129,350.609c-4.604-7.984-14.81-10.723-22.804-6.108l-28.918,16.696c-7.983,4.608-10.722,14.82-6.108,22.804    c4.622,8.011,14.831,10.722,22.804,6.108l28.918-16.696C94.004,368.804,96.744,358.593,92.129,350.609z"
                id="path56"
                style="fill:#4eb1a0;fill-opacity:1"/>
	</g>
</g>
    <g
            id="g66"
            style="fill:#4eb1a0;fill-opacity:1">
	<g
            id="g64"
            style="fill:#4eb1a0;fill-opacity:1">
		<path
                d="M384,34.3c-7.978-4.609-18.19-1.864-22.804,6.108L344.5,69.326c-4.615,7.984-1.875,18.196,6.108,22.804    c7.984,4.619,18.19,1.878,22.804-6.108l16.696-28.918C394.723,49.12,391.984,38.908,384,34.3z"
                id="path62"
                style="fill:#4eb1a0;fill-opacity:1"/>
	</g>
</g>
    <g
            id="g72"
            style="fill:#4eb1a0;fill-opacity:1">
	<g
            id="g70"
            style="fill:#4eb1a0;fill-opacity:1">
		<path
                d="M161.391,419.87c-7.978-4.619-18.196-1.87-22.804,6.108l-16.696,28.918c-4.615,7.984-1.875,18.196,6.108,22.804    c7.984,4.619,18.19,1.879,22.804-6.108l16.696-28.918C172.114,434.69,169.375,424.478,161.391,419.87z"
                id="path68"
                style="fill:#4eb1a0;fill-opacity:1"/>
	</g>
</g>
    <g
            id="g78"
            style="fill:#4eb1a0;fill-opacity:1">
	<g
            id="g76"
            style="fill:#4eb1a0;fill-opacity:1">
		<path
                d="M256,100.174c-85.924,0-155.826,69.902-155.826,155.826S170.076,411.826,256,411.826S411.826,341.924,411.826,256    S341.924,100.174,256,100.174z M256,200.348c-30.684,0-55.652,24.968-55.652,55.652c0,9.223-7.473,16.696-16.696,16.696    c-9.223,0-16.696-7.473-16.696-16.696c0-49.097,39.946-89.043,89.043-89.043c9.223,0,16.696,7.473,16.696,16.696    C272.696,192.875,265.223,200.348,256,200.348z"
                id="path74"
                style="fill:#4eb1a0;fill-opacity:1"/>
	</g>
</g>
    <g
            id="g80"
            style="fill:#4eb1a0;fill-opacity:1">
</g>
    <g
            id="g82"
            style="fill:#4eb1a0;fill-opacity:1">
</g>
    <g
            id="g84"
            style="fill:#4eb1a0;fill-opacity:1">
</g>
    <g
            id="g86"
            style="fill:#4eb1a0;fill-opacity:1">
</g>
    <g
            id="g88"
            style="fill:#4eb1a0;fill-opacity:1">
</g>
    <g
            id="g90"
            style="fill:#4eb1a0;fill-opacity:1">
</g>
    <g
            id="g92"
            style="fill:#4eb1a0;fill-opacity:1">
</g>
    <g
            id="g94"
            style="fill:#4eb1a0;fill-opacity:1">
</g>
    <g
            id="g96"
            style="fill:#4eb1a0;fill-opacity:1">
</g>
    <g
            id="g98"
            style="fill:#4eb1a0;fill-opacity:1">
</g>
    <g
            id="g100"
            style="fill:#4eb1a0;fill-opacity:1">
</g>
    <g
            id="g102"
            style="fill:#4eb1a0;fill-opacity:1">
</g>
    <g
            id="g104"
            style="fill:#4eb1a0;fill-opacity:1">
</g>
    <g
            id="g106"
            style="fill:#4eb1a0;fill-opacity:1">
</g>
    <g
            id="g108"
            style="fill:#4eb1a0;fill-opacity:1">
</g>
</svg>